<svg xmlns="http://www.w3.org/2000/svg" xmlns:xlink="http://www.w3.org/1999/xlink" version="1.1" x="0px" y="0px" viewBox="0 0 100 100" enable-background="new 0 0 100 100" xml:space="preserve"><path fill="#000000" d="M88.38,16.748c-2.711,0-5.1,1.329-6.609,3.351V2.64c0-0.675-0.315-1.313-0.853-1.723  c-0.533-0.409-1.228-0.544-1.886-0.368l-17.95,4.904l-17.95-4.904c-0.028-0.007-0.056,0.003-0.084-0.003  c-0.16-0.037-0.321-0.017-0.487-0.017c-0.165,0.001-0.325-0.02-0.485,0.017c-0.029,0.007-0.058-0.004-0.088,0.003l-17.95,4.904  L6.09,0.548c-0.65-0.176-1.349-0.04-1.886,0.368C3.666,1.327,3.35,1.964,3.35,2.64V92.3c0,0.978,0.654,1.833,1.596,2.092l18.52,5.06  c0.188,0.051,0.381,0.076,0.572,0.076c0.191,0,0.383-0.025,0.572-0.076l17.95-4.904l17.95,4.904  c0.188,0.051,0.381,0.076,0.572,0.076s0.383-0.025,0.572-0.076l18.522-5.06c0.942-0.258,1.596-1.114,1.596-2.092V54.63l10.333-1.11  c0.275-0.03,0.485-0.263,0.485-0.54V38.271c0-0.207-0.119-0.396-0.303-0.487l-10.515-5.145v-2.706  c1.509,2.021,3.898,3.35,6.609,3.35c4.56,0,8.269-3.709,8.269-8.267C96.65,20.457,92.941,16.748,88.38,16.748z M21.87,94.52  L7.686,90.644V5.479L21.87,9.355V94.52z M40.392,90.644L26.206,94.52V9.355l14.186-3.876V90.644z M58.914,94.52l-14.186-3.876V5.479  l14.186,3.876V94.52z M77.435,48.661l-4.075,0.443c-0.296,0.032-0.51,0.296-0.481,0.593l0.548,5.28  c0.015,0.144,0.087,0.275,0.199,0.366c0.097,0.078,0.218,0.121,0.341,0.121c0.019,0,0.038,0,0.057-0.002l3.411-0.366v35.549  L63.249,94.52V9.355l14.186-3.876V48.661z M87.352,45.23c0.11-0.227,0.366-0.356,0.61-0.288c0.246,0.057,0.419,0.275,0.419,0.527  v2.615c0,0.277-0.21,0.51-0.485,0.54l-1.355,0.142c-0.019,0.002-0.038,0.002-0.057,0.002c-0.176,0-0.343-0.085-0.445-0.233  c-0.112-0.161-0.129-0.37-0.042-0.548L87.352,45.23z"></path></svg>