<svg xmlns="http://www.w3.org/2000/svg" xmlns:xlink="http://www.w3.org/1999/xlink" version="1.1" x="0px" y="0px" viewBox="0 0 100 100" enable-background="new 0 0 100 100" xml:space="preserve"><path d="M64.999,72.746l0.005-0.013c0.89,0.381,1.815,0.601,2.774,0.601C74.631,73.334,80,63.085,80,50.001  c0-13.084-5.369-23.333-12.222-23.333c-0.958,0-1.883,0.22-2.773,0.601l-0.006-0.013L22.628,45.306  c-1.632-2.834-4.685-4.75-8.184-4.75C9.237,40.556,5,44.793,5,50.001c0,5.207,4.237,9.444,9.444,9.444  c3.498,0,6.552-1.917,8.184-4.75L64.999,72.746z M60.076,31.767c-2.771,4.243-4.521,10.773-4.521,18.234  c0,7.46,1.75,13.99,4.521,18.233L23.503,52.652c0.247-0.842,0.386-1.731,0.386-2.652c0-0.921-0.139-1.809-0.386-2.652L60.076,31.767  z M65.434,71.724L65.434,71.724L65.434,71.724z M67.778,28.89c0.465,0,0.92,0.096,1.37,0.233l-1.78,1.78c0,0-0.001,0-0.001,0  l-8.047,8.047c0.296-0.991,0.629-1.927,0.996-2.803l4.847-4.847l2.384-2.384C67.625,28.911,67.7,28.89,67.778,28.89z M75.795,37.596  l-0.887,0.887l-5.061,5.06c0,0,0,0.001,0,0.001l-2.478,2.478c0,0-0.001,0-0.001,0l-9.248,9.248c-0.068-0.537-0.129-1.08-0.176-1.631  l2.18-2.18l0.04-0.04l5-5l5.08-5.08l5.04-5.04c0,0,0,0,0,0l0.014-0.014C75.472,36.707,75.636,37.146,75.795,37.596z M73.304,32.526  l-0.896,0.896c0,0,0,0,0,0l-5.04,5.04l-5.08,5.08l-4.46,4.46c0.031-0.658,0.079-1.306,0.139-1.947l4.718-4.717c0,0,0-0.001,0-0.001  l2.478-2.478c0,0,0.001,0,0.001,0l7.354-7.354C72.787,31.82,73.05,32.161,73.304,32.526z M70.701,32.61l-0.854,0.854c0,0,0,0,0,0  l-2.479,2.479c0,0,0,0,0,0l-9.313,9.313c0.082-0.716,0.181-1.417,0.298-2.105l1.772-1.771c0,0,0,0,0,0l1.707-1.707l0.854-0.854  c0,0,0,0,0,0l2.479-2.479c0,0,0,0,0,0l6.071-6.071c0.32,0.258,0.631,0.548,0.935,0.872L70.701,32.61z M70.836,29.954l-0.135,0.136  l-0.854,0.854c0,0,0,0,0,0l-2.479,2.479c0,0,0,0,0,0l-8.862,8.862c0.154-0.799,0.325-1.581,0.523-2.331l1.095-1.095c0,0,0,0,0,0  l1.707-1.707l0.854-0.854c0,0,0,0,0,0l2.479-2.479c0,0,0,0,0,0l4.519-4.519C70.075,29.468,70.46,29.689,70.836,29.954z   M60.906,34.844c1.334-2.7,3.004-4.659,4.849-5.497l0.089-0.038c0.294-0.127,0.592-0.228,0.894-0.298L60.906,34.844z M65.434,28.277  L65.434,28.277L65.434,28.277z M68.243,71.06l2.001-2.001l4.836-4.836C73.34,68.192,70.911,70.786,68.243,71.06z M75.578,63.012  l-3.171,3.171l-4.9,4.9c-0.502-0.03-0.996-0.14-1.479-0.329l1.654-1.654l0.04-0.04l2.479-2.479l0.041-0.041l2.479-2.479l0.04-0.04  l2.479-2.479l1.199-1.198C76.185,61.277,75.897,62.169,75.578,63.012z M76.686,59.385l-1.757,1.757l-2.521,2.521l-0.04,0.04  l-2.479,2.479l-0.041,0.041l-2.479,2.479l-0.04,0.04l-1.789,1.789c-0.375-0.19-0.741-0.429-1.1-0.708l0.726-0.726l0.04-0.04  l5.04-5.04l2.479-2.479l2.561-2.561l1.875-1.875C77.022,57.886,76.865,58.647,76.686,59.385z M77.312,56.238l-1.145,1.145  l-1.28,1.28c0,0,0,0,0,0l-1.239,1.239l-1.239,1.239c0,0,0,0,0,0l-5.04,5.04L64.04,69.51c-0.308-0.271-0.609-0.572-0.902-0.906  l2.024-2.024c0.001-0.001,0.001,0,0.002-0.001l7.58-7.581l4.828-4.828C77.503,54.872,77.415,55.561,77.312,56.238z M77.63,53.401  l-0.182,0.182l-5.04,5.04l-0.04,0.04l-2.479,2.479l-2.521,2.521l-0.04,0.04l-2.479,2.479l-2.029,2.029  c-0.262-0.325-0.517-0.671-0.764-1.044l3.109-3.109l0.04-0.04l2.479-2.479l2.561-2.561l5.04-5.04l2.457-2.457  C77.718,52.13,77.681,52.768,77.63,53.401z M77.759,50.751l-2.872,2.872c0,0,0,0.001,0,0.001l-2.479,2.478c0,0,0,0,0,0l-1.28,1.28  l-1.28,1.28c0,0,0,0,0,0l-2.478,2.479c0,0-0.001,0-0.001,0l-5.588,5.588c-0.226-0.365-0.444-0.749-0.654-1.152l0.279-0.279  l1.28-1.28c0,0,0,0,0,0l2.478-2.479c0,0,0.001,0,0.001,0l10.12-10.12c0,0,0-0.001,0.001-0.001l2.467-2.467  c0.009,0.35,0.026,0.696,0.026,1.05C77.778,50.254,77.764,50.5,77.759,50.751z M77.734,48.256l-0.286,0.286c0,0,0,0,0,0l-5.04,5.04  l-5.04,5.04l-0.04,0.04l-2.479,2.479l-2.561,2.561l-1.406,1.406c-0.196-0.398-0.381-0.817-0.561-1.247l2.323-2.323l2.521-2.521  l0.04-0.04l5.04-5.04l2.479-2.479l0.04-0.04l2.521-2.521l1.666-1.666l0.676-0.676C77.672,47.118,77.711,47.682,77.734,48.256z   M77.577,45.894l-0.128,0.128c0,0,0,0,0,0l-1.707,1.707l-0.854,0.854c0,0,0,0,0,0l-0.609,0.609l-4.431,4.43c0,0,0,0.001-0.001,0.002  l-2.477,2.477c-0.001,0.001-0.001,0-0.002,0.001l-7.262,7.263c-0.169-0.428-0.324-0.877-0.477-1.331l0.495-0.495c0,0,0,0,0,0  l10.12-10.12c0,0,0,0,0,0l5.026-5.026l2.109-2.109C77.453,44.814,77.523,45.348,77.577,45.894z M74.887,46.063  C74.887,46.063,74.887,46.064,74.887,46.063l-2.479,2.479c0,0,0,0,0,0l-5.04,5.04l-5.08,5.08l-2.479,2.479l-0.357,0.357  c-0.144-0.456-0.281-0.921-0.408-1.4l1.08-1.08l0.04-0.04l2.521-2.521l2.479-2.479l10.12-10.12c0,0,0-0.001,0-0.001l1.737-1.736  c0.099,0.504,0.191,1.015,0.272,1.536L74.887,46.063z M74.887,43.543C74.887,43.543,74.887,43.544,74.887,43.543l-2.479,2.479  c0,0,0,0,0,0l-1.707,1.707l-0.854,0.854c0,0,0,0,0,0l-7.56,7.56l-2.479,2.479l-0.04,0.04l-0.865,0.865  c-0.119-0.483-0.236-0.968-0.337-1.47l6.598-6.598l0.04-0.04l10.08-10.08c0,0,0-0.001,0-0.001l1.273-1.273  c0.124,0.477,0.234,0.97,0.341,1.467L74.887,43.543z M74.908,41.003l-5.061,5.06c0,0,0,0,0,0.001l-2.479,2.479c0,0,0,0,0,0  l-8.909,8.909c-0.094-0.509-0.184-1.022-0.259-1.548l4.485-4.485c0,0,0-0.001,0.001-0.002l2.478-2.478c0,0,0,0,0,0l10.12-10.12  c0,0,0,0,0,0l0.698-0.698c0.149,0.45,0.284,0.918,0.416,1.391L74.908,41.003z M75.084,35.787l-2.676,2.676l-5.04,5.04l-9.473,9.473  c-0.04-0.568-0.068-1.142-0.085-1.722l2.315-2.314c0,0,0,0,0,0l5.04-5.04l5.08-5.08l2.479-2.479l1.779-1.779  C74.704,34.953,74.897,35.362,75.084,35.787z M73.648,34.703l-1.24,1.24c0,0,0,0,0,0l-5.04,5.04l-5.08,5.08l-2.479,2.479  l-2.016,2.016c-0.002-0.187-0.014-0.37-0.014-0.558c0-0.427,0.019-0.846,0.031-1.267l1.501-1.501l3.374-3.373c0,0,0-0.001,0-0.001  l2.478-2.478c0,0,0.001,0,0.001,0l8.418-8.418c0.233,0.358,0.459,0.733,0.677,1.131L73.648,34.703z"></path><path d="M94.444,49.445H83.333c-0.307,0-0.556,0.248-0.556,0.556c0,0.307,0.248,0.556,0.556,0.556h11.111  c0.307,0,0.556-0.248,0.556-0.556C95,49.694,94.752,49.445,94.444,49.445z"></path><path d="M82.205,38.603c-0.289,0.105-0.437,0.424-0.332,0.712c0.082,0.226,0.295,0.366,0.522,0.366c0.063,0,0.127-0.011,0.19-0.034  l10.442-3.8c0.289-0.105,0.437-0.424,0.332-0.712c-0.105-0.289-0.421-0.437-0.712-0.332L82.205,38.603z"></path><path d="M86.408,21.392c-0.197-0.237-0.547-0.267-0.782-0.068l-8.511,7.142c-0.235,0.197-0.266,0.547-0.068,0.782  c0.11,0.131,0.267,0.199,0.425,0.199c0.126,0,0.253-0.043,0.357-0.13l8.511-7.142C86.576,21.977,86.606,21.627,86.408,21.392z"></path><path d="M93.026,64.141L82.585,60.34c-0.289-0.104-0.607,0.043-0.712,0.332c-0.105,0.289,0.043,0.607,0.332,0.712l10.442,3.801  c0.063,0.023,0.127,0.034,0.19,0.034c0.227,0,0.439-0.14,0.522-0.366C93.464,64.565,93.315,64.247,93.026,64.141z"></path><path d="M77.829,70.671c-0.234-0.197-0.586-0.166-0.782,0.068c-0.197,0.235-0.167,0.585,0.068,0.782l8.511,7.142  c0.104,0.088,0.231,0.13,0.357,0.13c0.158,0,0.316-0.067,0.425-0.199c0.197-0.235,0.167-0.585-0.068-0.782L77.829,70.671z"></path></svg>