<svg xmlns="http://www.w3.org/2000/svg" xmlns:xlink="http://www.w3.org/1999/xlink" version="1.0" x="0px" y="0px" viewBox="0 0 147 200" style="enable-background:new 0 0 147 200;" xml:space="preserve"><g><path d="M30,37c0.9,0,1.6-0.7,1.6-1.6v-13c0-0.9-0.7-1.6-1.6-1.6s-1.6,0.7-1.6,1.6v13C28.3,36.3,29.1,37,30,37z"></path><path d="M39.7,37c0.9,0,1.6-0.7,1.6-1.6v-13c0-0.9-0.7-1.6-1.6-1.6c-0.9,0-1.6,0.7-1.6,1.6v13C38.1,36.3,38.8,37,39.7,37z"></path><path d="M49.4,37c0.9,0,1.6-0.7,1.6-1.6v-13c0-0.9-0.7-1.6-1.6-1.6c-0.9,0-1.6,0.7-1.6,1.6v13C47.8,36.3,48.5,37,49.4,37z"></path><path d="M59.2,37c0.9,0,1.6-0.7,1.6-1.6v-13c0-0.9-0.7-1.6-1.6-1.6c-0.9,0-1.6,0.7-1.6,1.6v13C57.6,36.3,58.3,37,59.2,37z"></path><path d="M68.9,37c0.9,0,1.6-0.7,1.6-1.6v-13c0-0.9-0.7-1.6-1.6-1.6s-1.6,0.7-1.6,1.6v13C67.3,36.3,68,37,68.9,37z"></path><path d="M78.6,37c0.9,0,1.6-0.7,1.6-1.6v-13c0-0.9-0.7-1.6-1.6-1.6S77,21.5,77,22.4v13C77,36.3,77.8,37,78.6,37z"></path><path d="M88.4,37c0.9,0,1.6-0.7,1.6-1.6v-13c0-0.9-0.7-1.6-1.6-1.6s-1.6,0.7-1.6,1.6v13C86.8,36.3,87.5,37,88.4,37z"></path><path d="M98.1,37c0.9,0,1.6-0.7,1.6-1.6v-13c0-0.9-0.7-1.6-1.6-1.6s-1.6,0.7-1.6,1.6v13C96.5,36.3,97.2,37,98.1,37z"></path><path d="M107.9,37c0.9,0,1.6-0.7,1.6-1.6v-13c0-0.9-0.7-1.6-1.6-1.6c-0.9,0-1.6,0.7-1.6,1.6v13C106.2,36.3,107,37,107.9,37z"></path><path d="M117.6,37c0.9,0,1.6-0.7,1.6-1.6v-13c0-0.9-0.7-1.6-1.6-1.6s-1.6,0.7-1.6,1.6v13C116,36.3,116.7,37,117.6,37z"></path><path d="M75.3,86.5h-22v15h-15v22h15v15h22v-15h15v-22h-15V86.5z M85.4,106.4v12.2h-15v15H58.2v-15h-15v-12.2h15v-15h12.2v15H85.4z   "></path><path d="M129,7H18.5c-4.4,0-8,3.6-8,8v30.9c0,2.4,1.8,4.4,4.1,4.8v129.9c0,6.2,5.1,11.3,11.3,11.3h95.8c6.2,0,11.3-5.1,11.3-11.3   V50.7c2.3-0.4,4.1-2.4,4.1-4.8V15C137.1,10.6,133.5,7,129,7z M123.3,180.7c0,0.9-0.7,1.6-1.6,1.6H25.9c-0.9,0-1.6-0.7-1.6-1.6   v-22.8h86.3V67H24.3V49.2h99V180.7z M24.6,153.1V71.9h81.1v81.1H24.6z M127.3,16.7v24.3H20.2V16.7H127.3z"></path></g></svg>