<svg fill="#EC5D57" xmlns="http://www.w3.org/2000/svg" xmlns:xlink="http://www.w3.org/1999/xlink" version="1.1" x="0px" y="0px" viewBox="0 0 100 100" enable-background="new 0 0 100 100" xml:space="preserve"><g><g><path d="M94.8,56.4l-6.1-9.2c2.4-4.4,3.7-9.3,3.7-14.3C92.4,16.6,79.2,3.4,63,3.4c-16.2,0-29.5,13.2-29.5,29.5    c0,1.5,0.1,3,0.3,4.5C19.1,38.9,7.6,51.5,7.6,66.6c0,5.1,1.3,10,3.7,14.3l-6.1,9.2c-1,1.5-0.9,3.4,0.1,4.8c0.8,1.1,2,1.7,3.3,1.7    c0.4,0,0.8-0.1,1.2-0.2L23,92.5c4.3,2.3,9.1,3.6,14.1,3.6c16.2,0,29.5-13.2,29.5-29.5c0-1.5-0.1-3-0.3-4.5    c3.8-0.4,7.5-1.5,10.9-3.4l13.2,3.9c0.4,0.1,0.8,0.2,1.2,0.2c1.3,0,2.5-0.6,3.3-1.7C95.8,59.7,95.8,57.8,94.8,56.4z M37,91.9    c-5,0-9.6-1.4-13.5-3.9L8.6,92.5L16.2,81c-2.8-4.1-4.5-9.1-4.5-14.4c0-13.2,10.2-24.1,23.1-25.2c0.7-0.1,1.5-0.1,2.2-0.1    c0.7,0,1.4,0,2.1,0.1c10,0.8,18.4,7.5,21.7,16.6c0.5,1.4,0.9,2.8,1.1,4.2c0.2,1.4,0.4,2.9,0.4,4.4C62.3,80.6,51,91.9,37,91.9z     M76.5,54.3c-3.3,2.1-7.2,3.4-11.3,3.8c-1.6-5.2-4.6-9.8-8.6-13.4c0.2-0.1,0.4-0.1,0.6-0.3l0.7-0.6l1.4,3.4c0.2,0.6,0.8,1,1.4,1    c0.2,0,0.4,0,0.6-0.1c0.8-0.3,1.2-1.2,0.9-2l-1.7-4.3l4.7-3.9l1.4,3.4c0.2,0.6,0.8,1,1.4,1c0.2,0,0.4,0,0.6-0.1    c0.8-0.3,1.2-1.2,0.9-2l-1.8-4.3l2-1.6c0.7-0.5,0.8-1.5,0.2-2.2c-0.5-0.7-1.5-0.8-2.2-0.2l-1.2,1l-2.3-5.6l1.5-1.2    c0.7-0.5,0.8-1.5,0.2-2.2c-0.5-0.7-1.5-0.8-2.2-0.2l-0.7,0.6l-1.4-3.4c-0.3-0.8-1.2-1.2-2-0.9c-0.8,0.3-1.2,1.2-0.9,2l1.7,4.3    l-4.7,3.9l-1.4-3.4c-0.3-0.8-1.2-1.2-2-0.9c-0.8,0.3-1.2,1.2-0.9,2l1.8,4.3l-2.5,2.1c-0.7,0.5-0.8,1.5-0.2,2.2    c0.3,0.4,0.8,0.6,1.2,0.6c0.3,0,0.7-0.1,1-0.4l1.8-1.5l2.3,5.6L55.2,42c-0.3,0.3-0.5,0.7-0.6,1.1c-4.7-3.5-10.4-5.7-16.6-5.9    c-0.2-1.4-0.4-2.9-0.4-4.4C37.7,18.9,49,7.5,63,7.5s25.3,11.3,25.3,25.3c0,5.4-1.7,10.3-4.5,14.4l7.6,11.4L76.5,54.3z M59.2,38.7    l-2.3-5.6l4.7-3.9l2.3,5.6L59.2,38.7z"></path><path d="M34,62.7c-0.9-2.6-3-4.4-5.5-4.6c-2-0.1-3.8,0.9-4.7,2.7c-0.4,0.8-0.1,1.7,0.7,2.1c0.8,0.4,1.7,0.1,2.1-0.7    c0.5-0.9,1.2-1,1.7-1c1,0.1,2.2,0.9,2.8,2.5c0.8,2.5-0.5,4.8-3.2,5.8c-1.1,0.4-2.4,0.3-3.6-0.3c-1.2-0.6-2.1-1.6-2.5-2.7l-0.2-0.6    c-1.7-4.9,1.3-8.8,5.2-10.1c4.1-1.4,8.6,0.8,10,4.9c0.3,0.8,1.2,1.2,2,1c0.8-0.3,1.2-1.2,1-2c-2-5.7-8.2-8.8-13.9-6.8    c-6.1,2.1-9.1,8.1-7.1,14l0.2,0.6c0.6,1.9,2.1,3.5,4,4.5c1.2,0.6,2.4,0.9,3.7,0.9c0.8,0,1.6-0.1,2.3-0.4    C33.2,70.9,35.4,66.9,34,62.7z"></path><path d="M53.3,69.1c-0.3-0.8-1.2-1.2-2-1l-4.4,1.5l2-4.2c0.4-0.8,0.1-1.7-0.7-2.1c-0.8-0.4-1.7-0.1-2.1,0.7l-2,4.2l-1.5-4.4    c-0.3-0.8-1.2-1.2-2-1c-0.8,0.3-1.2,1.2-1,2l1.5,4.4l-4.2-2c-0.8-0.4-1.7-0.1-2.1,0.7c-0.4,0.8-0.1,1.7,0.7,2.1l4.2,2l-4.4,1.5    c-0.8,0.3-1.2,1.2-1,2c0.2,0.6,0.8,1.1,1.5,1.1c0.2,0,0.3,0,0.5-0.1l4.4-1.5l-2,4.2c-0.4,0.8-0.1,1.7,0.7,2.1    c0.2,0.1,0.5,0.2,0.7,0.2c0.6,0,1.1-0.3,1.4-0.9l2-4.2l1.5,4.4c0.2,0.6,0.8,1.1,1.5,1.1c0.2,0,0.3,0,0.5-0.1c0.8-0.3,1.2-1.2,1-2    l-1.5-4.4l4.2,2c0.2,0.1,0.5,0.2,0.7,0.2c0.6,0,1.1-0.3,1.4-0.9c0.4-0.8,0.1-1.7-0.7-2.1l-4.2-2l4.4-1.5    C53.2,70.8,53.6,69.9,53.3,69.1z"></path><path d="M76.7,28.4l-6.5-13.6c-0.4-0.8-1.3-1.1-2.1-0.7c-0.8,0.4-1.1,1.3-0.7,2.1l6.5,13.6c0.3,0.6,0.8,0.9,1.4,0.9    c0.2,0,0.5,0,0.7-0.2C76.7,30.1,77,29.2,76.7,28.4z"></path><circle cx="77.5" cy="33.8" r="1.9"></circle></g></g></svg>