<svg fill="#EC5D57" xmlns="http://www.w3.org/2000/svg" xmlns:xlink="http://www.w3.org/1999/xlink" version="1.1" x="0px" y="0px" viewBox="0 0 100 100" enable-background="new 0 0 100 100" xml:space="preserve"><g><g><g><g><path d="M24.216,21.441c-8.898,1.346-13.601,5.119-13.601,5.119c-17.706,13.614-8.681,57.978,6.153,63.684      c7.19,2.767,9.677,7.123,9.677,7.123s22.046,4.422,27.22,0c4.664-3.984-7.657-5.529-7.657-5.529      c-0.851-9.036,12.923-10.665,12.923-10.665s9.55,13.451,14.178,16.194c1.582,0.939,6.123,1.364,7.357,0      c0.198-0.217,0.009-0.901-0.115-1.169c-12.006-26.167,7.458-34.93,7.476-34.937c5.091,1.019,12.252-0.488,12.196-5.538      c-0.107-9.533-14.78-16.09-14.78-16.09s0.008-0.191-0.008-0.491c0.004-0.074,0.014-0.148,0.014-0.225      c0-0.788-0.206-1.525-0.562-2.167c-0.16-0.326-0.369-0.625-0.637-0.867c-0.814-0.88-1.975-1.433-3.268-1.433      c-2.468,0-4.466,1.999-4.466,4.466c0,1.17,0.455,2.234,1.192,3.031c-0.007,0.044-0.013,0.087-0.021,0.131      c-0.933,4.674-6.684,9.423-18.182,5.74c-6.386-2.297-11.933-4.077-16.359-2.911c0,0-14.226,6.34-20.252,17.523      c-0.577,1.068-1.189,2.118-1.709,3.221c-0.521,1.101-0.978,2.233-1.377,3.39c-0.818,2.31-1.374,4.717-1.768,7.166      c0.017-2.483,0.356-4.974,0.968-7.407c0.314-1.214,0.7-2.411,1.151-3.586c0.451-1.177,0.99-2.319,1.579-3.438      c2.362-4.472,5.793-8.342,9.727-11.481c3.543-2.833,7.489-5.102,11.608-6.905c4.939-3.997,10.366-11.127,8.912-22.683      C45.973-8.923,5.285,0.15,0.891,12.91C-2.571,22.961,6.104,26.47,9.82,25.545C9.82,25.545,17.586,20.661,24.216,21.441z"></path></g></g></g></g></svg>