<svg xmlns="http://www.w3.org/2000/svg" xmlns:xlink="http://www.w3.org/1999/xlink" version="1.1" x="0px" y="0px" viewBox="0 0 94.2 100" enable-background="new 0 0 94.2 100" xml:space="preserve"><path fill="#000000" stroke="#231F20" stroke-miterlimit="10" d="M179.9,409.1"></path><g><path fill="#000000" d="M11.1,43c0,0-0.1,0-0.1-0.1c-4.8-4.3-6-10.7-6-10.7c-0.6-3.8,0-6.7,1.7-8.6c2.2-2.5,5.6-2.5,5.7-2.5   c2.9-0.2,4.9,1.7,6.2,3.3c0.1,0.1,0.1,0.2,0,0.3c-0.1,0.1-0.2,0.1-0.3,0c-1.2-1.5-3.1-3.3-5.8-3.2c0,0-3.3,0-5.4,2.4   c-1.6,1.9-2.1,4.6-1.6,8.3c0,0.1,1.2,6.3,5.9,10.5c0.1,0.1,0.1,0.2,0,0.3C11.2,43,11.1,43,11.1,43z M19.4,22.6l-1.3,1.6l-2,0.4   c1.1,0.4,2.5,1.2,3.5,2C19.4,25.4,19.2,23.8,19.4,22.6z M27,20.1c0.1,0,0.2-0.1,0.2-0.2c-0.3-4,0.4-6.9,2.1-8.8   c1.9-2.1,4.5-2.1,4.6-2.1c2.2,0,3.5,2.2,4.3,4c0,0.1,0.2,0.2,0.3,0.1c0.1,0,0.2-0.2,0.1-0.3c-0.8-1.9-2.3-4.2-4.7-4.2   c-0.1,0-2.8,0-4.9,2.2c-1.8,2-2.6,5.1-2.2,9.1C26.7,20,26.8,20.1,27,20.1C26.9,20.1,26.9,20.1,27,20.1z M39.8,11.2l-1.6,1.3   l-2.1-0.1c1,0.6,2.2,1.8,3,2.7C39.1,13.9,39.4,12.3,39.8,11.2z M56.9,12.4c2.3-5-1.2-7-1.2-7c-1.2-0.8-3.4-0.7-6.5,4   c-0.1,0.1,0,0.2,0.1,0.3c0.1,0.1,0.2,0,0.3-0.1c1.3-2,3.8-5.1,5.9-3.9c0.1,0.1,3.2,1.8,1,6.5c0,0.1,0,0.2,0.1,0.3c0,0,0.1,0,0.1,0   C56.8,12.5,56.9,12.5,56.9,12.4z M51.7,9.6l-2.1-0.4l-1.3-1.6c0.2,1.2,0.1,2.8-0.1,4C49.2,10.8,50.5,10,51.7,9.6z M70.9,21.4   c1.2-0.9,2.3-2.6,3-4.9c0.6-1.7,0.8-3.1,0.8-3.1c0.3-1.8,0-3.1-0.9-3.9c-1.6-1.5-4.3-0.9-4.5-0.9c-0.2,0-0.4,0.1-0.6,0.2   c-0.1,0-0.1,0.2-0.1,0.3c0,0.1,0.2,0.1,0.3,0.1c0.2-0.1,0.3-0.1,0.5-0.2c0,0,2.7-0.6,4.1,0.8c0.8,0.7,1.1,1.9,0.8,3.6   c0,0.1-0.8,5.6-3.6,7.7c-0.1,0.1-0.1,0.2,0,0.3c0,0.1,0.1,0.1,0.2,0.1C70.8,21.5,70.9,21.5,70.9,21.4z M71,9.8l-1.9-1l-0.8-1.9   c-0.1,1.2-0.7,2.7-1.3,3.8C68.2,10.3,69.8,9.9,71,9.8z M76.4,36.8c4.7-1.8,9.4-6.3,9.4-6.4c2.3-2.2,3.2-3.9,2.8-5.1   c-0.4-1.3-2.2-1.5-2.3-1.5c-2.2-0.4-4.4,0.2-5.7,0.7c-0.1,0-0.2,0.2-0.1,0.3c0,0.1,0.2,0.2,0.3,0.1c1.3-0.5,3.4-1,5.5-0.7   c0,0,1.6,0.2,2,1.2c0.2,0.7,0,2.1-2.7,4.7c0,0-4.7,4.5-9.3,6.3c-0.1,0-0.2,0.2-0.1,0.3C76.2,36.7,76.2,36.8,76.4,36.8   C76.3,36.8,76.4,36.8,76.4,36.8z M82.4,26.1l-1.5-1.5l-0.2-2.1c-0.5,1.1-1.5,2.4-2.3,3.3C79.6,25.7,81.3,25.7,82.4,26.1z    M68.9,51.5c6.5-1.7,10.7-7.2,10.7-7.2c0.9-1.1,1.3-2.1,1-2.8c-0.3-0.9-1.5-1.2-1.7-1.2c-0.8-0.2-1.8-0.3-2.8-0.1   c-0.1,0-0.2,0.1-0.2,0.2c0,0.1,0.1,0.2,0.2,0.2c1-0.2,1.9-0.2,2.6,0.1l0,0c0,0,1.1,0.2,1.3,1c0.2,0.6-0.1,1.4-0.9,2.4   c0,0.1-4.2,5.5-10.5,7.1c-0.1,0-0.2,0.1-0.1,0.3C68.7,51.5,68.8,51.5,68.9,51.5C68.9,51.5,68.9,51.5,68.9,51.5z M77.8,42l-1.3-1.7   l0.1-2.1c-0.6,1-1.8,2.2-2.8,2.9C75.1,41.2,76.7,41.5,77.8,42z M16.3,38.4c0.1-0.1,0.1-0.2,0-0.3c-1.4-1.7-3.6-4.2-6.4-6.2   c-0.1-0.1-0.2,0-0.3,0c-0.1,0.1,0,0.2,0,0.3c2.8,2,5,4.5,6.3,6.2c0,0.1,0.1,0.1,0.2,0.1C16.2,38.4,16.2,38.4,16.3,38.4z M17.1,36.2   L15.9,38l-2,0.6c1.2,0.3,2.6,1,3.7,1.7C17.3,39,17,37.4,17.1,36.2z M22.1,43c0.1,0,0.2-0.1,0.1-0.3c-2.5-9.1,1.2-10.5,1.2-10.5l0,0   c1.4-0.8,2.7-0.3,3.9,1.3c0.1,0.1,0.2,0.1,0.3,0c0.1-0.1,0.1-0.2,0-0.3c-1.3-1.8-2.9-2.3-4.4-1.4c-0.4,0.1-4.1,1.7-1.5,11   C21.9,42.9,21.9,43,22.1,43C22.1,43,22.1,43,22.1,43z M28.7,31.5l-1.3,1.6l-2.1,0.4c1.1,0.4,2.5,1.3,3.5,2.1   C28.6,34.3,28.5,32.7,28.7,31.5z M33.1,30.4c0.1-0.1,0.1-0.2,0.1-0.3c-3.3-5.3-1-10.1-1-10.2c0.5-1,1-1.5,1.6-1.5c0,0,0,0,0,0   c0.9,0,2.1,1.2,3.2,3.3c0.1,0.1,0.2,0.1,0.3,0.1c0.1-0.1,0.1-0.2,0.1-0.3c-1.3-2.3-2.5-3.5-3.6-3.5c-0.8,0-1.4,0.6-2,1.7   c0,0.1-2.4,5.1,1,10.6c0,0.1,0.1,0.1,0.2,0.1C33,30.5,33.1,30.4,33.1,30.4z M38.5,19.9l-1.5,1.5L35,21.6c1.1,0.5,2.4,1.4,3.3,2.3   C38.2,22.7,38.2,21,38.5,19.9z M52.8,27.4 M29.5,75.3c0.1,0,0.2-0.1,0.2-0.2c0-0.1-0.1-0.2-0.2-0.2c-3.7,0.6-15.6-0.6-20.8-9.3   c-1.5-2.6-2.7-7.1-1.5-11c0.8-2.8,2.7-5,5.7-6.5c3.9-2,7.5-1.1,12.1,3c0.1,0.1,0.2,0.1,0.3,0s0.1-0.2,0-0.3   c-3.2-2.8-7.4-5.7-12.6-3.1c-3,1.5-5,3.8-5.9,6.8c-1.3,4.5,0.4,9.2,1.6,11.3c4.5,7.7,14.2,9.6,19.2,9.6   C28.3,75.5,29,75.4,29.5,75.3z M26.9,52.8c-0.6-1.1-1.1-2.7-1.2-3.9l-0.8,1.9L23,51.8C24.2,51.8,25.8,52.3,26.9,52.8z M29.6,71.3   c0.1-0.1,0.1-0.2,0-0.3c-5.3-6.6-5.7-10.6-5.1-12.8c0.4-1.5,1.3-2.3,2.1-2.6l0,0c1.3-0.6,2.8,0.3,3.9,1.2c0.1,0.1,0.2,0.1,0.3,0   c0.1-0.1,0.1-0.2,0-0.3c-1.6-1.4-3.1-1.8-4.3-1.3c-0.8,0.3-1.9,1.2-2.3,2.8c-0.6,2.3-0.3,6.4,5.2,13.2c0,0.1,0.1,0.1,0.2,0.1   C29.5,71.3,29.6,71.3,29.6,71.3z M31.3,54.5l-0.9,1.9l-1.9,0.9c1.2,0.1,2.7,0.6,3.9,1.1C31.9,57.3,31.4,55.7,31.3,54.5z M36.3,55.8   c0.1,0,0.2-0.1,0.2-0.2c-1-5.2-0.5-9,1.4-11.3c1.9-2.3,4.7-2.2,4.7-2.2c1.2,0.1,2.1,0.7,2.8,1.8c0.1,0.1,0.2,0.1,0.3,0.1   c0.1-0.1,0.1-0.2,0.1-0.3c-0.8-1.2-1.8-1.9-3.1-2c-0.1,0-3-0.1-5,2.4c-2,2.4-2.6,6.3-1.5,11.7C36.1,55.7,36.1,55.8,36.3,55.8   C36.3,55.8,36.3,55.8,36.3,55.8z M46.9,42l-1.6,1.4l-2.1,0.1c1.1,0.5,2.3,1.6,3.2,2.5C46.4,44.7,46.6,43.1,46.9,42z M51.3,44.8   c4.1-5.2,4.5-7.8,4.2-9c-0.2-0.8-0.8-1.1-0.8-1.1c-1.1-0.4-2.3,0.1-3.2,1.4c-0.1,0.1,0,0.2,0,0.3c0.1,0.1,0.2,0,0.3,0   c0.9-1.2,1.8-1.6,2.8-1.3c0,0,0.4,0.2,0.6,0.8c0.6,2.2-2.3,6.4-4.1,8.7c-0.1,0.1-0.1,0.2,0,0.3c0,0,0.1,0,0.1,0   C51.2,44.9,51.3,44.8,51.3,44.8z M53.8,36.2l-2.1-0.3l-1.4-1.6c0.3,1.2,0.2,2.8,0.1,4C51.4,37.6,52.7,36.7,53.8,36.2z M42.4,39.7   c0.2-3.1,0-7.1-1.8-8.6c-0.8-0.7-1.6-0.5-1.6-0.5c-1,0.2-1.7,1.2-2.1,3c0,0.1,0.1,0.2,0.2,0.2c0.1,0,0.2-0.1,0.2-0.2   c0.2-1.1,0.7-2.4,1.8-2.6c0,0,0.6-0.1,1.2,0.4c0.9,0.7,1.9,2.8,1.6,8.2c0,0.1,0.1,0.2,0.2,0.2c0,0,0,0,0,0   C42.3,39.9,42.4,39.8,42.4,39.7z M39.2,32.8l-2,0.5l-1.9-0.9c0.7,1,1.3,2.5,1.6,3.7C37.5,35,38.4,33.6,39.2,32.8z M29.6,51   c0.1-0.1,0.1-0.2,0.1-0.3c-4.3-6.4-2.6-8.8-2.6-8.9c0.2-0.3,0.4-0.5,0.7-0.5c0.5-0.1,1.2,0.2,2,0.9c0.1,0.1,0.2,0.1,0.3,0   c0.1-0.1,0.1-0.2,0-0.3c-0.9-0.7-1.7-1-2.3-0.9c-0.4,0.1-0.8,0.3-1,0.7c-0.1,0.1-1.9,2.7,2.5,9.3c0,0.1,0.1,0.1,0.2,0.1   C29.5,51.1,29.6,51.1,29.6,51z M30.6,39.9l-0.9,1.9l-1.9,0.9c1.2,0.1,2.8,0.6,3.9,1.1C31.2,42.7,30.7,41.1,30.6,39.9z M48.5,30.5   c0.1,0,0.2-0.1,0.2-0.2c0-1.8,0.2-3.4,0.5-4.6c0-0.1,0-0.2-0.1-0.3c-0.1,0-0.2,0-0.3,0.1c-0.4,1.2-0.6,2.8-0.6,4.7   C48.3,30.4,48.4,30.5,48.5,30.5C48.5,30.5,48.5,30.5,48.5,30.5z M50.5,29.2L48.5,30l-2-0.6c0.8,0.9,1.6,2.3,2.1,3.4   C49,31.6,49.7,30.1,50.5,29.2z M54.5,26.6c0-7.9-0.8-12-2.6-12.5c-1.1-0.3-2.5,0.9-4.1,3.6c-0.1,0.1,0,0.2,0.1,0.3   c0.1,0.1,0.2,0,0.3-0.1c1.4-2.4,2.7-3.6,3.6-3.4c1,0.3,2.3,2.6,2.3,12.1c0,0.1,0.1,0.2,0.2,0.2h0C54.5,26.8,54.5,26.7,54.5,26.6z    M50.3,17.8l-2.1-0.3L46.8,16c0.3,1.2,0.2,2.8,0.1,4C47.9,19.2,49.2,18.3,50.3,17.8z M58.5,21.3c1.1-1.4,2.9-4,5.1-8.3   c0.1-0.1,0-0.2-0.1-0.3c-0.1-0.1-0.2,0-0.3,0.1c-2.1,4.2-3.9,6.8-5,8.2c-0.1,0.1-0.1,0.2,0,0.3c0,0,0.1,0,0.1,0   C58.4,21.4,58.5,21.3,58.5,21.3z M60.5,21.7l-1.9-0.8l-1-1.8c0,1.2-0.4,2.8-0.9,3.9C57.8,22.4,59.3,21.8,60.5,21.7z M70.7,32.8   c0.3-2.2,0.3-5.2-1.7-6.7c-3.6-2.8-8.4-1.5-14.3,3.9c-0.1,0.1-0.1,0.2,0,0.3c0.1,0.1,0.2,0.1,0.3,0c5.8-5.3,10.4-6.6,13.8-3.9   c1.8,1.3,1.9,4.2,1.6,6.3c0,0.1,0.1,0.2,0.2,0.2c0,0,0,0,0,0C70.6,33,70.7,32.9,70.7,32.8z M72.6,32.2l-2.1,0.3l-1.8-1.1   c0.6,1,1,2.6,1.2,3.9C70.6,34.2,71.7,32.9,72.6,32.2z M61.5,37.7c1-1.3,2.5-2.5,4.3-3.7c0.1-0.1,0.1-0.2,0.1-0.3   c-0.1-0.1-0.2-0.1-0.3-0.1c-1.9,1.2-3.3,2.5-4.4,3.8c-0.1,0.1-0.1,0.2,0,0.3c0,0,0.1,0,0.1,0C61.4,37.7,61.4,37.7,61.5,37.7z    M63.6,37.7l-2.1-0.4l-1.3-1.6c0.2,1.2,0.1,2.8-0.2,4C61,38.9,62.4,38.1,63.6,37.7z M70.3,64.2c0.9-1.3,0.1-2.8,0.1-2.8   c-0.5-1.1-1.4-1.8-2.6-2c-0.1,0-0.2,0.1-0.2,0.2c0,0.1,0.1,0.2,0.2,0.2c1.1,0.2,1.8,0.8,2.3,1.8c0,0,0.7,1.3-0.1,2.4   c-0.7,1.1-3.1,2.4-9.9,1.7c-0.1,0-0.2,0.1-0.2,0.2c0,0.1,0.1,0.2,0.2,0.2c1.2,0.1,2.4,0.2,3.4,0.2C67.1,66.3,69.4,65.6,70.3,64.2z    M68.9,61.5l-0.8-1.9l0.6-2c-0.9,0.8-2.3,1.7-3.4,2.2C66.5,60.1,68,60.8,68.9,61.5z M58.3,62.8c3.3-1.4,7.4-4.1,8.4-9   c0.6-2.9-0.1-5.2-0.2-5.3c-1.2-3.1-4.2-4-6.6-4.2c-0.1,0-0.2,0.1-0.2,0.2c0,0.1,0.1,0.2,0.2,0.2c2.2,0.2,5.1,1,6.2,3.9   c0,0,0.8,2.3,0.2,5.1c-0.8,3.7-3.6,6.7-8.2,8.7c-0.1,0-0.2,0.2-0.1,0.3C58,62.8,58.1,62.9,58.3,62.8C58.2,62.9,58.2,62.9,58.3,62.8   z M61,46.6l-0.7-2l0.7-2c-0.9,0.8-2.4,1.5-3.5,2C58.6,45.1,60.1,45.8,61,46.6z M55,55.7c2.8-2.7,3.9-4.9,3.4-6.4   c-0.5-1.4-2.2-1.7-2.3-1.8C53.8,47.2,52,48.7,51,50c-0.1,0.1-0.1,0.2,0,0.3c0.1,0.1,0.2,0.1,0.3,0c1-1.2,2.7-2.7,4.8-2.3   c0,0,1.6,0.3,1.9,1.5c0.3,0.9,0,2.8-3.3,6c-0.1,0.1-0.1,0.2,0,0.3c0,0,0.1,0.1,0.1,0.1C54.9,55.8,55,55.7,55,55.7z M53.4,50.4   l-2-0.5l-1.3-1.7c0.2,1.2,0,2.8-0.3,4C50.8,51.5,52.2,50.7,53.4,50.4z M20.6,64.2c0.1-0.1,0-0.2-0.1-0.3c-9-5.1-8-9.2-8-9.3   c0.3-1.1,0.8-1.9,1.6-2.4c1.5-0.8,3.8-0.2,5.4,0.4c0.1,0,0.2,0,0.3-0.1c0-0.1,0-0.2-0.1-0.3C18,51.6,15.7,51,14,51.9   c-0.9,0.5-1.5,1.4-1.8,2.6c-0.1,0.2-1.1,4.4,8.1,9.8c0,0,0.1,0,0.1,0C20.5,64.3,20.5,64.3,20.6,64.2z M19.6,50.3l-0.2,2.1l-1.5,1.5   c1.2-0.3,2.8-0.4,4-0.3C21,52.7,20,51.4,19.6,50.3z M85.6,55.6c0-0.1-0.1-0.2-0.2-0.2c-3.5-0.7-6.7-0.8-8.9-0.8   c-0.1,0-0.2,0.1-0.2,0.2c0,0.1,0.1,0.2,0.2,0.2c0,0,0,0,0,0c2.1,0,5.3,0.1,8.8,0.8c0,0,0,0,0,0C85.5,55.8,85.5,55.7,85.6,55.6z    M77.6,56.7l-0.8-1.9l0.7-2c-0.9,0.8-2.3,1.6-3.5,2.1C75.2,55.3,76.7,56,77.6,56.7z M88.6,60.6c0.1-0.1,1.8-2.9,0.5-5.6   c-1.2-2.4-4.3-3.8-9.3-4.3c-0.1,0-0.2,0.1-0.2,0.2c0,0.1,0.1,0.2,0.2,0.2c4.8,0.5,7.9,1.9,9,4.1c1.2,2.5-0.4,5.2-0.4,5.2   c-2.6,3.8-8.5,3.4-11.7,2.7c-0.1,0-0.2,0.1-0.2,0.2c0,0.1,0.1,0.2,0.2,0.2c1.2,0.2,2.7,0.4,4.3,0.4C83.6,64,86.8,63.3,88.6,60.6z    M77,65.5l-0.2-2.1l1.1-1.8c-1.1,0.6-2.7,0.9-3.9,1.1C75.1,63.4,76.3,64.5,77,65.5z M40,94.3c0.7-3.2,0.9-5.8,0.9-5.9   c0.4-2.4-0.3-4.9-1.9-7.1c-2-2.4-2.9-9-2.9-9.1c-1.7-7.3-0.8-10.7-0.8-10.7c1.1-3.6,2.9-6,5.6-7.1c4.7-2.1,10.3,0.7,10.4,0.7   c7.2,3.7,5.2,13.3,5.1,13.4l0,0.1l0,0.1c1.7,3.2,2,4.7,2.1,5.2c-0.8,0-1.4,0-1.7,0.4c-0.4,0.6-0.5,1.5-0.5,1.5   c0,6.6-2.8,7.4-2.9,7.4l0,0c-0.8,0.4-1.7,0.4-2.3,0.4c-0.8,0-1.5,0-1.6,0.8c-0.5,3.3,2.9,9.7,3,9.9c0.1,0.1,0.2,0.1,0.3,0.1   c0.1-0.1,0.1-0.2,0.1-0.3c0-0.1-3.5-6.5-3-9.7c0.1-0.4,0.4-0.4,1.2-0.4c0.7,0,1.6,0,2.5-0.4c0.3-0.1,3.2-1,3.2-7.8   c0,0,0-0.8,0.4-1.3c0.2-0.2,0.7-0.2,1.4-0.2l0.4,0l0-0.2c0-0.1,0-1.4-2.1-5.5c0.2-0.9,1.8-10.1-5.4-13.8c-0.1,0-5.8-2.8-10.7-0.7   c-2.7,1.2-4.7,3.7-5.8,7.4c0,0.1-0.9,3.5,0.8,10.9c0,0.3,0.9,6.8,3,9.3c1.6,2.2,2.3,4.5,1.8,6.8c0,0-0.3,2.6-0.9,5.8   c0,0.1,0,0.2,0.2,0.2c0,0,0,0,0,0C39.9,94.4,40,94.4,40,94.3z M54.2,68.4c0-0.9-0.8-1.7-1.7-1.7s-1.7,0.8-1.7,1.7   c0,0.9,0.8,1.7,1.7,1.7S54.2,69.3,54.2,68.4z M53.8,68.4c0,0.7-0.6,1.3-1.3,1.3c-0.7,0-1.3-0.6-1.3-1.3s0.6-1.3,1.3-1.3   C53.2,67.1,53.8,67.7,53.8,68.4z M61.6,88.8c0-0.1,0-0.2-0.1-0.3c-0.1,0-0.2,0-0.3,0.1c-0.9,3.3-7.5,5.9-15.2,5.9   c-7.9,0-14.6-2.7-15.2-6.1c0-0.1-0.1-0.2-0.2-0.2c-0.1,0-0.2,0.1-0.2,0.2C31.1,92.2,37.8,95,46,95C53.9,95,60.6,92.3,61.6,88.8z    M39.9,69c-0.3-0.7-0.2-1.5-0.2-1.9c0.6,0.5,1.1,0.7,1.7,0.7c0.5,0,0.9-0.2,1.1-0.3c0.3,0.4,0.7,0.7,1.1,0.7c0.6,0,1.1-0.5,1.4-0.8   c0.4,0.3,0.8,0.5,1.2,0.5c0.8,0,1.4-0.6,1.6-0.9c1.1,0.2,1.8,0.1,2.3-0.4c0.3-0.3,0.4-0.7,0.4-0.9c0.8,0.2,1.3,0,1.6-0.4   c0.3-0.4,0.2-1,0.2-1.3c1-0.6,0.9-1.8,0.6-2.5c0.4-0.6,0.5-1.2,0.4-1.8c-0.2-0.6-0.7-1.1-1.5-1.4c-0.1-1.3-1.1-1.8-2.2-1.8   c-0.4-0.8-1.1-1.2-1.8-1.2c-0.6,0-1.2,0.3-1.9,0.8c-0.4-0.3-0.8-0.4-1.3-0.4c-1.1,0-1.9,0.9-2.2,1.5c-0.3-0.1-0.6-0.2-0.9-0.2   c-1.1,0-1.6,1.1-1.8,1.4c-0.8,0.1-1.4,0.4-1.7,1C37.6,60,37.9,61,38,61.4c-1.7,1.7-0.7,3.7-0.4,4.1c-0.7,1.8,0,3.4,0,3.5l0.1,0.1   l2.4,0.2L39.9,69z M38,65.6l0-0.1L38,65.4c-0.1-0.1-1.5-2.1,0.4-3.8l0.1-0.1l-0.1-0.1c0,0-0.5-1.1,0-1.9c0.3-0.4,0.8-0.7,1.5-0.8   l0.1,0l0-0.1c0-0.1,0.4-1.3,1.4-1.3c0.3,0,0.6,0.1,0.9,0.3l0.3,0.2l0-0.3c0-0.2,0.8-1.4,1.8-1.4c0.4,0,0.8,0.1,1.1,0.4l0.1,0.1   l0.1-0.1c1.5-1.1,2.6-1,3.3,0.4l0.1,0.1l0.1,0c0,0,0,0,0.1,0c0.5,0,1.8,0.2,1.8,1.6v0.2l0.1,0c0.7,0.2,1.2,0.6,1.3,1.1   c0.2,0.5,0,1-0.4,1.5l-0.1,0.1l0,0.1c0,0,0.2,0.4,0.2,0.9c0,0.6-0.2,1-0.7,1.3l-0.2,0.1l0.1,0.2c0,0,0.2,0.7-0.1,1.1   c-0.2,0.3-0.7,0.3-1.5,0.2l-0.3-0.1l0,0.3c0,0,0,0.5-0.3,0.9c-0.4,0.4-1.1,0.5-2,0.2l-0.1,0l-0.1,0.1c0,0-0.6,0.8-1.3,0.8   c-0.4,0-0.7-0.2-1-0.5L45,66.7l-0.1,0.2c0,0-0.5,0.8-1.2,0.8c-0.3,0-0.6-0.2-0.9-0.7l-0.1-0.2L42.5,67c0,0-0.4,0.4-1,0.4   c-0.5,0-1.1-0.3-1.7-0.9l-0.2-0.2l-0.1,0.3c0,0.1-0.4,1.2,0,2.3l-1.5-0.1C37.8,68.3,37.4,67,38,65.6z M53.9,78.7   c1.4,0,2.6-0.3,2.6-0.3c0.1,0,0.2-0.1,0.1-0.3c0-0.1-0.1-0.2-0.3-0.1c0,0-4.6,1.1-6.5-1.1c-0.1-0.1-0.2-0.1-0.3,0   c-0.1,0.1-0.1,0.2,0,0.3C50.5,78.2,52,78.7,53.9,78.7C53.9,78.7,53.9,78.7,53.9,78.7z"></path></g></svg>