<svg fill="#EC5D57" xmlns="http://www.w3.org/2000/svg" xmlns:xlink="http://www.w3.org/1999/xlink" version="1.1" x="0px" y="0px" viewBox="0 0 100 100" style="enable-background:new 0 0 100 100;" xml:space="preserve"><circle cx="31.7" cy="34.3" r="4.5"></circle><path d="M21.5,42.6c-0.9,0.4-1.9,0.8-2.5,1.6l-4,6.9c-0.7,1.2-0.3,2.8,0.9,3.4c0.4,0.3,0.8,0.3,1.3,0.3c0.9,0,1.7-0.4,2.2-1.3  l3.6-6.3l2.7-1.2l-1.9,8.7c0,0.1,0,0.1-0.1,0.3l-1.1,7.9l-6.8,11c-0.8,1.2-0.4,2.7,0.8,3.4c0.4,0.3,0.9,0.4,1.3,0.4  c0.8,0,1.7-0.4,2.1-1.2l7.1-11.5c0.2-0.3,0.3-0.6,0.4-1l0.8-6l6.9,5v12.2c0,1.4,1.1,2.5,2.5,2.5s2.5-1.1,2.5-2.5V62  c0-0.8-0.4-1.6-1-2l-7.6-5.5l1.6-6.8l1.8,2.3c0.3,0.4,0.7,0.6,1.1,0.8l7.1,2.6c1.3,0.5,2.8-0.2,3.2-1.5c0.5-1.3-0.2-2.8-1.5-3.2  l-6.5-2.4c-1-1.3-2.1-2.5-3.1-3.8c-0.9-1.1-1.7-2.6-3.2-2.8c-0.6-0.1-2.8-0.3-3.3-0.2c-0.5,0.1-1,0.3-1.4,0.5L21.5,42.6z"></path><path d="M26.1,31.9l-1.6-2.5c0.6-0.7,0.9-1.5,0.9-2.4c0-2.7-3.3-5-7.5-5c-4.1,0-7.5,2.2-7.5,5s3.3,5,7.5,5c1.8,0,3.5-0.4,4.8-1.2  l3,1.5C26,32.4,26.3,32.1,26.1,31.9z"></path><circle cx="68.3" cy="34.3" r="4.5"></circle><path d="M72.5,40c-0.4-0.3-0.9-0.4-1.4-0.5c-0.6-0.1-2.8,0.1-3.3,0.2c-1.5,0.3-2.3,1.8-3.2,2.8c-1,1.3-2.1,2.5-3.1,3.8L55,48.7  c-1.3,0.4-2,1.9-1.5,3.2c0.4,1.3,1.9,2,3.2,1.5l7.1-2.6c0.4-0.1,0.8-0.4,1.1-0.8l1.8-2.3l1.6,6.8L60.7,60c-0.6,0.4-1,1.2-1,2v13.5  c0,1.4,1.1,2.5,2.5,2.5c1.4,0,2.5-1.1,2.5-2.5V63.2l6.9-5l0.8,6c0.1,0.4,0.2,0.7,0.4,1l7.1,11.5c0.4,0.8,1.3,1.2,2.1,1.2  c0.4,0,0.9-0.1,1.3-0.4c1.2-0.8,1.6-2.3,0.8-3.4l-6.8-11l-1.1-7.9c-0.1-0.1-0.1-0.2-0.1-0.3l-1.9-8.7l2.7,1.2l3.6,6.3  c0.5,0.8,1.3,1.3,2.2,1.3c0.4,0,0.9-0.1,1.3-0.3c1.2-0.7,1.6-2.3,0.9-3.4l-4-6.9c-0.6-0.9-1.6-1.3-2.5-1.6L72.5,40z"></path><path d="M73.9,31.9l1.6-2.5c-0.6-0.7-0.9-1.5-0.9-2.4c0-2.7,3.3-5,7.5-5c4.1,0,7.5,2.2,7.5,5s-3.3,5-7.5,5c-1.8,0-3.5-0.4-4.8-1.2  l-3,1.5C74,32.4,73.7,32.1,73.9,31.9z"></path></svg>