<svg fill="#EC5D57" xmlns="http://www.w3.org/2000/svg" xmlns:xlink="http://www.w3.org/1999/xlink" version="1.1" x="0px" y="0px" viewBox="0 0 64 64" style="enable-background:new 0 0 64 64;" xml:space="preserve"><g><path d="M39.9,14.6c0.6,0.4,1.5,0.3,1.9-0.4c0.4-0.6,0.3-1.5-0.4-1.9C37.7,9.7,33,8.5,28.4,9c-8.7,0.8-15.8,7.2-17.6,15.7   c-0.2,0.8,0.3,1.5,1.1,1.7c0.1,0,0.2,0,0.3,0c0.6,0,1.2-0.5,1.4-1.1c1.6-7.3,7.7-12.8,15.1-13.5C32.7,11.4,36.7,12.4,39.9,14.6z"></path><path d="M27.9,3.5C33.4,3,38.7,4.2,43.4,7c0.7,0.4,1.5,0.2,1.9-0.5c0.4-0.7,0.2-1.5-0.5-1.9c-5.2-3.1-11.2-4.5-17.3-3.9   C16,1.9,6.1,10.2,3.1,21.5c-0.2,0.7,0.2,1.5,1,1.7c0.1,0,0.2,0,0.4,0c0.6,0,1.2-0.4,1.4-1C8.5,12.1,17.4,4.6,27.9,3.5z"></path><path d="M29.5,20c-0.6-1.1-1.4-1.9-2.5-2.3c-0.6-0.2-1.2-0.2-1.8,0.1c-0.5,0.2-0.8,0.6-1,1.1l-0.1,0.2c-0.4,0.6-0.7,1.5-0.1,2.9   l2.3,5.4l0.5,1.1c0.7,1.9,1.4,3.7,2.2,5.6l1.6,4.1c0.1,0.3,0.1,0.5,0.1,0.6l-0.2,0c-0.1,0-0.3-0.1-0.4-0.3   c-0.2-0.2-0.3-0.4-0.4-0.6c-0.1-0.2-0.2-0.4-0.4-0.5c-0.5-0.5-1-1.1-1.6-1.6c-0.3-0.3-0.8-0.6-1.2-0.9c-0.1,0-0.2-0.1-0.3-0.1   c-0.7-0.3-1.4-0.1-2.1,0.4c-0.7,0.5-1,1.3-0.7,2.1c0.4,1.1,0.8,2,1.3,2.7c0.1,0.2,0.2,0.3,0.3,0.4c0,0,0,0,0,0l0.1,0.2   c0.5,0.7,1.1,1.4,1.6,2.1c0.4,0.5,0.8,1,1.2,1.5l0.2,0.3c0.2,0.2,0.4,0.5,0.6,0.8c1.5,2,3.1,3.7,4.8,5c1.4,1.1,3,2,4.7,2.6   c0,0,0.1,0,0.1,0c0.2,0.1,0.4,0.2,0.5,0.5c0.1,0.1,0.3,0.6,0.6,1.2c-0.1,0.1-0.1,0.2-0.2,0.3l0,0c-0.3,0.8-0.4,1.8,0,2.7l1.6,3.7   c0.6,1.5,2.1,2.3,3.7,2.1c0.3,0,0.7-0.1,1-0.2l13.2-5.6c1.1-0.5,1.9-1.5,2.1-2.7c0.1-0.7,0.1-1.3-0.2-2c0,0-1.6-3.7-1.6-3.7   c-0.3-0.8-1.1-1.1-1.6-1.8c-0.5-0.6-0.9-1.6-1.1-2.4c-0.4-1.3-0.7-2.7-1-4c-0.4-1.9-0.8-3.8-1.4-5.5c-0.2-0.6-0.4-1.1-0.7-1.7   c-0.4-0.9-0.8-1.7-1.2-2.6c-0.3-0.6-0.6-1.2-0.9-1.8c-0.7-1.3-2-2-3.6-2c-0.5,0-1.1,0.1-1.6,0.2l-0.7,0.2c-1.3,0.3-2.5,0.6-3.8,0.9   c-1.6,0.4-3.2,0.8-4.8,1.2c-1.3,0.3-2.3-0.2-2.9-1.4l-1.5-2.9L29.5,20z M56.2,49.3l2.3,5.5l-14.8,6.2l-2.3-5.5L56.2,49.3z"></path></g></svg>