<svg xmlns="http://www.w3.org/2000/svg" xmlns:xlink="http://www.w3.org/1999/xlink" version="1.1" x="0px" y="0px" viewBox="0 0 100 100" enable-background="new 0 0 100 100" xml:space="preserve"><path d="M94.615,50.914l-9.4-0.065l0.022-3.249l-8.113,4.608l8.046,4.722l0.024-3.247l9.4,0.067c0.005,0,0.007,0,0.011,0  c0.779,0,1.413-0.629,1.417-1.407C96.028,51.56,95.399,50.92,94.615,50.914z"></path><path d="M19.905,38.378"></path><path d="M13.854,41.048c-0.568,0-1.104-0.343-1.322-0.904c-2.784-7.172-2.47-13.819,0.841-17.78  c0.502-0.599,1.396-0.681,1.997-0.179c0.601,0.503,0.681,1.396,0.179,1.997c-2.6,3.109-2.742,8.833-0.373,14.937  c0.283,0.729-0.079,1.551-0.809,1.834C14.198,41.018,14.024,41.048,13.854,41.048z"></path><path d="M19.906,39.795c-0.465,0-0.92-0.228-1.191-0.648c-2.725-4.214-2.885-9.662-0.375-12.674  c0.501-0.603,1.394-0.683,1.996-0.182c0.602,0.502,0.683,1.396,0.182,1.997c-1.72,2.063-1.466,6.157,0.578,9.32  c0.425,0.657,0.236,1.535-0.421,1.96C20.437,39.723,20.17,39.795,19.906,39.795z"></path><path d="M7.599,42.422c-0.554,0-1.079-0.326-1.308-0.869c-3.715-8.831-2.91-17.787,2.099-23.372  c0.521-0.584,1.418-0.632,2.001-0.108c0.583,0.522,0.632,1.418,0.109,2.001c-4.205,4.689-4.831,12.689-1.596,20.382  c0.304,0.721-0.035,1.553-0.757,1.855C7.968,42.387,7.781,42.422,7.599,42.422z"></path><path d="M12.293,21.482"></path><path d="M69.709,67.71c-3.639,0.515-5.363,1.499-8.435-1.065c-2.252-1.88-4.655-3.581-7.051-5.266  c-7.024-4.946-11.225-10.448-11.518-19.34c-0.235-7.087,1.877-15.079,10.067-15.753c3.16-0.261,6.32,0.745,9.009,2.319  c4.161,2.436,3.842,6.773,3.288,10.861c-0.068,0.002-0.125-0.019-0.197-0.008c-5.283,0.836-10.813,2.834-12.885,8.174  c-2.406,6.198,4.316,12.575,8.771,15.558c3.24,2.165,10.599,4.657,13.177,0.256c0.982-1.676-0.941-3.495-1.92-4.559  c-4.052-4.397-1.777-7.315-0.955-12.256c0.065-0.388-0.013-0.715-0.181-0.973c2.83-1.717,4.51-4.757,5.19-8.12  c2.038-10.086-10.396-18.234-18.841-19.111c-1.812-0.188-3.638-0.108-5.433,0.183c0.16-0.563,0.214-1.165,0.119-1.781  c-0.353-2.293-2.506-3.87-4.788-3.513c-12.347,1.897-20.969,13.096-20.969,27.231c0,7.111,2.132,13.831,6.001,18.923  c0.826,1.088,2.08,1.659,3.347,1.659c0.887,0,1.779-0.279,2.538-0.856c0.34-0.258,0.613-0.568,0.851-0.899  c1.112,2.627,2.392,5.166,3.979,7.799c2.576,4.264,5.604,8.574,9.12,12.104c3.263,3.273,8.431,5.619,12.51,7.734  c3.581,1.856,7.66,2.85,11.355,1.005c3.632-1.812,4.282-3.468,5.603-7.091c0.054-0.101,0.097-0.209,0.125-0.34  c0.072-0.199,0.088-0.38,0.069-0.546C82.549,73.554,76.167,66.797,69.709,67.71z M57.031,48.094h2.844V45.25h2v2.844h2.844v2h-2.844  v2.844h-2v-2.844h-2.844V48.094z M67.406,59.438h-7.688v-2h7.688V59.438z M79.214,79.932c-1.499,4.107-3.414,7.146-8.535,6.451  c-4.528-0.616-8.213-3.266-11.997-5.649c-8.599-5.414-15.967-15.706-18.897-25.597c-2.071-6.991-5.266-14.085-3.417-21.462  c1.936-7.731,10.772-12.105,18.067-12.794c7.537-0.713,13.533,3.626,17.532,9.639c3.041,4.571,1.829,10.327-2.709,13.292  c-3.146,2.054-1.46-6.162-1.571-5.335c0.228-1.706,0.32-3.225,0.183-4.943c-0.578-7.323-10.537-10.576-16.636-9.563  c-9.376,1.558-11.216,11.167-10.947,19.319c0.382,11.585,8.304,16.883,16.72,23.121c3.778,2.799,4.897,5.288,9.547,4.368  c3.673-0.729,6.134-0.825,9.32,1.325C77.834,73.43,79.702,77.517,79.214,79.932z"></path></svg>