<svg fill="#EC5D57" xmlns="http://www.w3.org/2000/svg" viewBox="0 0 100 100" x="0px" y="0px"><path d="m 12.592305 64.07518 c -1.964775 0 -3.751781 1.788867 -3.7506986 3.753641 c .00108 1.963264 1.7874346 3.748491 3.7506986 3.748491 c 1.963264 0 3.749214 -1.785227 3.750697 -3.748491 c .0015 -1.965278 -1.785924 -3.753641 -3.750697 -3.753641 z"></path><path d="m 31.295783 64.07518 c -1.964773 0 -3.75178 1.788867 -3.750697 3.753641 c .0011 1.963264 1.787435 3.748491 3.750697 3.748491 c 1.963266 0 3.749924 -1.785227 3.751433 -3.748491 c .0015 -1.965278 -1.786658 -3.753641 -3.751433 -3.753641 z"></path><path d="m 49.999999 64.07518 c -1.964775 0 -3.751688 1.788867 -3.750699 3.753641 c .00099 1.963264 1.787435 3.748491 3.750699 3.748491 c 1.963264 0 3.749214 -1.785227 3.750698 -3.748491 c .0015 -1.965278 -1.785925 -3.753641 -3.750698 -3.753641 z"></path><path d="m 68.703477 64.07518 c -1.964772 0 -3.751687 1.788867 -3.750697 3.753641 c .000989 1.963264 1.787435 3.748491 3.750697 3.748491 c 1.963265 0 3.749189 -1.785227 3.750699 -3.748491 c .0015 -1.965278 -1.785924 -3.753641 -3.750699 -3.753641 z"></path><path d="m 87.407694 64.07518 c -1.964775 0 -3.75255 1.788867 -3.751433 3.753641 c .0011 1.963264 1.788169 3.748491 3.751433 3.748491 c 1.96327 0 3.749456 -1.785227 3.7507 -3.748491 c .0012 -1.965278 -1.78593 -3.753641 -3.7507 -3.753641 z"></path><path d="m 12.592305 72.517928 c -5.5848356 0 -6.7508676 6.25671 -7.4616816 8.940634 c -.710815 2.683922 1.438109 3.145438 7.4616816 3.145438 c 6.023573 0 8.172497 -.461515 7.461682 -3.145438 c -.710814 -2.683924 -1.876848 -8.940634 -7.461682 -8.940634 z"></path><path d="m 31.295783 72.517928 c -5.584834 0 -6.750866 6.25671 -7.461681 8.940634 c -.710816 2.683922 1.438112 3.145438 7.461681 3.145438 c 6.023572 0 8.173237 -.461515 7.462419 -3.145438 c -.710812 -2.683924 -1.87758 -8.940634 -7.462419 -8.940634 z"></path><path d="m 49.999999 72.517928 c -5.584836 0 -6.750868 6.25671 -7.461682 8.940634 c -.710816 2.683922 1.43811 3.145438 7.461682 3.145438 c 6.02357 0 8.172497 -.461515 7.461681 -3.145438 c -.710814 -2.683924 -1.876846 -8.940634 -7.461681 -8.940634 z"></path><path d="m 68.703477 72.517928 c -5.584836 0 -6.750865 6.25671 -7.461682 8.940634 c -.710812 2.683922 1.438113 3.145438 7.461682 3.145438 c 6.023572 0 8.172501 -.461515 7.461682 -3.145438 c -.71081 -2.683924 -1.876843 -8.940634 -7.461682 -8.940634 z"></path><path d="m 87.407694 72.517928 c -5.58484 0 -6.751603 6.25671 -7.462417 8.940634 c -.710816 2.683922 1.438848 3.145438 7.462417 3.145438 c 6.02357 0 8.1725 -.461515 7.46168 -3.145438 c -.71081 -2.683924 -1.87684 -8.940634 -7.46168 -8.940634 z"></path><path d="m 21.944411 39.735825 c -1.964773 0 -3.75178 1.788865 -3.750697 3.753639 c .0011 1.963266 1.787433 3.748493 3.750697 3.748493 c 1.963264 0 3.749214 -1.785227 3.750697 -3.748493 c .0015 -1.965277 -1.785922 -3.753639 -3.750697 -3.753639 z"></path><path d="m 40.648438 39.736328 c -1.964773 0 -3.753037 1.789132 -3.751954 3.753906 c .0011 1.963266 1.788692 3.748047 3.751954 3.748047 c 1.963264 0 3.74849 -1.784781 3.75 -3.748047 c .0015 -1.965277 -1.785224 -3.753906 -3.75 -3.753906 z"></path><path d="m 78.054688 39.736328 c -1.964776 0 -3.751082 1.789132 -3.75 3.753906 c .0011 1.963266 1.786736 3.748047 3.75 3.748047 c 1.963263 0 3.75047 -1.784781 3.751953 -3.748047 c .0015 -1.965277 -1.78718 -3.753906 -3.751953 -3.753906 z"></path><path d="m 40.648438 48.177734 c -5.584833 0 -6.752076 6.257483 -7.462891 8.941407 c -.710814 2.683922 1.439323 3.144531 7.462891 3.144531 c 6.023572 0 8.171756 -.460608 7.460937 -3.144531 c -.710809 -2.683924 -1.876097 -8.941407 -7.460937 -8.941407 z"></path><path d="m 78.054688 48.177734 c -5.584836 0 -6.750124 6.257483 -7.460938 8.941407 c -.710811 2.683922 1.437366 3.144531 7.460938 3.144531 c 6.023572 0 8.173708 -.460608 7.46289 -3.144531 c -.71081 -2.683924 -1.878053 -8.941407 -7.46289 -8.941407 z"></path><path d="m 21.944411 48.177836 c -5.584836 0 -6.750868 6.25671 -7.461682 8.940634 c -.710815 2.683922 1.438109 3.146172 7.461682 3.146172 c 6.023573 0 8.172496 -.462249 7.461682 -3.146172 c -.710814 -2.683924 -1.876846 -8.940634 -7.461682 -8.940634 z"></path><path d="m 31.295783 15.396181 c -1.964773 0 -3.75178 1.788865 -3.750697 3.753639 c .0011 1.963265 1.787435 3.748492 3.750697 3.748492 c 1.963266 0 3.749924 -1.785227 3.751433 -3.748492 c .0015 -1.965276 -1.786658 -3.753639 -3.751433 -3.753639 z"></path><path d="m 49.999999 15.396181 c -1.964775 0 -3.751688 1.788865 -3.750699 3.753639 c .00099 1.963265 1.787435 3.748492 3.750699 3.748492 c 1.963264 0 3.749214 -1.785227 3.750698 -3.748492 c .0015 -1.965276 -1.785925 -3.753639 -3.750698 -3.753639 z"></path><path d="m 68.703477 15.396181 c -1.964771 0 -3.751716 1.788865 -3.750696 3.753639 c .001 1.963265 1.787435 3.748492 3.750696 3.748492 c 1.963268 0 3.749189 -1.785227 3.750699 -3.748492 c .0015 -1.965276 -1.785921 -3.753639 -3.750699 -3.753639 z"></path><path d="m 31.295783 23.838929 c -5.584834 0 -6.750866 6.256708 -7.461681 8.940632 c -.710816 2.683923 1.438112 3.145439 7.461681 3.145439 c 6.023572 0 8.173237 -.461515 7.462419 -3.145439 c -.710812 -2.683924 -1.87758 -8.940632 -7.462419 -8.940632 z"></path><path d="m 49.999999 23.838929 c -5.584836 0 -6.750868 6.256708 -7.461682 8.940632 c -.710816 2.683923 1.43811 3.145439 7.461682 3.145439 c 6.02357 0 8.172497 -.461515 7.461681 -3.145439 c -.710814 -2.683924 -1.876846 -8.940632 -7.461681 -8.940632 z"></path><path d="m 68.703477 23.838929 c -5.584836 0 -6.750865 6.256708 -7.461682 8.940632 c -.710812 2.683923 1.438113 3.145439 7.461682 3.145439 c 6.023572 0 8.172501 -.461515 7.461683 -3.145439 c -.71081 -2.683924 -1.876844 -8.940632 -7.461683 -8.940632 z"></path><path d="m 52.666118 46.082596 l 3.90722 3.907216 l -3.90722 3.927593 l 2.76804 2.768036 l 3.90722 -3.927593 l 3.92759 3.927593 l 2.76804 -2.768036 l -3.9276 -3.927593 l 3.9276 -3.907216 l -2.76804 -2.768036 l -3.92759 3.907216 l -3.90722 -3.907216 z"></path></svg>