<svg fill="#70C041" xmlns="http://www.w3.org/2000/svg" xmlns:xlink="http://www.w3.org/1999/xlink" version="1.1" x="0px" y="0px" viewBox="0 0 100 100" enable-background="new 0 0 100 100" xml:space="preserve"><g><path d="M75.67,37.422c-7.805,0-14.154-6.35-14.154-14.155c0-7.805,6.35-14.154,14.154-14.154c7.806,0,14.155,6.35,14.155,14.154   C89.825,31.073,83.476,37.422,75.67,37.422z M75.67,10.035c-7.296,0-13.232,5.937-13.232,13.232   c0,7.297,5.937,13.233,13.232,13.233c7.297,0,13.234-5.937,13.234-13.233C88.904,15.971,82.967,10.035,75.67,10.035z"></path></g><g><path d="M75.906,35.865l-0.033-1.843c0.283-0.006,0.568-0.022,0.848-0.05l0.178,1.836C76.571,35.839,76.238,35.859,75.906,35.865z    M74.254,35.788c-0.329-0.037-0.659-0.087-0.982-0.148l0.348-1.812c0.276,0.054,0.559,0.097,0.84,0.128L74.254,35.788z    M78.531,35.541l-0.415-1.797c0.272-0.063,0.547-0.138,0.816-0.224l0.56,1.757C79.176,35.377,78.852,35.466,78.531,35.541z    M71.668,35.217c-0.313-0.104-0.627-0.224-0.93-0.353l0.721-1.697c0.26,0.11,0.527,0.212,0.795,0.302L71.668,35.217z    M81.033,34.671l-0.783-1.669c0.252-0.119,0.505-0.25,0.75-0.391l0.916,1.601C81.628,34.377,81.331,34.532,81.033,34.671z    M69.26,34.116c-0.284-0.168-0.564-0.35-0.835-0.54l1.062-1.508c0.23,0.163,0.471,0.317,0.713,0.461L69.26,34.116z M83.295,33.298   l-1.115-1.468c0.224-0.17,0.443-0.352,0.654-0.54l1.229,1.375C83.816,32.885,83.558,33.098,83.295,33.298z M67.135,32.536   c-0.242-0.224-0.479-0.459-0.703-0.701l1.352-1.254c0.191,0.206,0.395,0.408,0.602,0.6L67.135,32.536z M85.223,31.484l-1.398-1.202   c0.186-0.215,0.363-0.439,0.529-0.665l1.486,1.09C85.646,30.971,85.439,31.232,85.223,31.484z M65.387,30.549   c-0.189-0.268-0.372-0.548-0.542-0.832l1.583-0.945c0.145,0.243,0.301,0.481,0.463,0.711L65.387,30.549z M86.729,29.308   l-1.616-0.886c0.135-0.246,0.262-0.501,0.377-0.76l1.682,0.754C87.037,28.719,86.888,29.019,86.729,29.308z M64.092,28.243   c-0.131-0.303-0.25-0.615-0.355-0.927l1.745-0.594c0.091,0.268,0.193,0.534,0.304,0.792L64.092,28.243z M87.749,26.863   l-1.768-0.525c0.08-0.271,0.151-0.547,0.21-0.822l1.803,0.384C87.926,26.221,87.844,26.545,87.749,26.863z M63.309,25.713   c-0.063-0.323-0.115-0.654-0.152-0.982l1.831-0.211c0.032,0.279,0.076,0.562,0.13,0.838L63.309,25.713z M88.23,24.261l-1.838-0.146   c0.021-0.278,0.033-0.564,0.033-0.849h1.844C88.27,23.6,88.256,23.934,88.23,24.261z M64.916,23.106l-1.844-0.027   c0.006-0.329,0.023-0.663,0.054-0.991l1.836,0.171C64.936,22.539,64.92,22.824,64.916,23.106z M86.371,22.177   c-0.027-0.28-0.067-0.563-0.117-0.841l1.814-0.328c0.059,0.325,0.105,0.656,0.138,0.984L86.371,22.177z M65.186,20.862l-1.799-0.41   c0.074-0.321,0.161-0.645,0.26-0.96l1.76,0.552C65.322,20.313,65.248,20.587,65.186,20.862z M85.91,19.965   c-0.086-0.266-0.184-0.533-0.291-0.795l1.704-0.703c0.126,0.307,0.241,0.621,0.343,0.936L85.91,19.965z M65.918,18.726l-1.671-0.78   c0.14-0.298,0.293-0.596,0.456-0.884l1.604,0.909C66.168,18.217,66.037,18.471,65.918,18.726z M84.994,17.903   c-0.141-0.245-0.293-0.486-0.451-0.718l1.519-1.044c0.187,0.271,0.365,0.554,0.53,0.841L84.994,17.903z M67.084,16.79l-1.471-1.112   c0.199-0.263,0.41-0.521,0.629-0.769l1.381,1.224C67.436,16.343,67.254,16.565,67.084,16.79z M83.667,16.075   c-0.188-0.209-0.388-0.414-0.593-0.608l1.271-1.337c0.239,0.228,0.473,0.467,0.692,0.712L83.667,16.075z M68.629,15.138   l-1.209-1.394c0.25-0.216,0.51-0.425,0.775-0.62l1.096,1.482C69.063,14.775,68.841,14.954,68.629,15.138z M81.987,14.561   c-0.228-0.165-0.465-0.324-0.706-0.472l0.963-1.572c0.282,0.173,0.561,0.359,0.828,0.553L81.987,14.561z M70.48,13.844L69.59,12.23   c0.289-0.159,0.588-0.309,0.889-0.445l0.76,1.68C70.982,13.581,70.728,13.708,70.48,13.844z M80.029,13.431   c-0.256-0.113-0.521-0.219-0.789-0.313l0.612-1.739c0.313,0.109,0.624,0.233,0.925,0.367L80.029,13.431z M72.562,12.968   l-0.532-1.766c0.314-0.095,0.639-0.179,0.963-0.249l0.391,1.802C73.105,12.816,72.83,12.887,72.562,12.968z M77.879,12.739   c-0.275-0.058-0.557-0.104-0.838-0.141l0.233-1.829c0.329,0.042,0.658,0.098,0.98,0.165L77.879,12.739z M74.781,12.548l-0.15-1.838   c0.326-0.026,0.66-0.041,0.992-0.042l0.007,1.844C75.347,12.513,75.061,12.526,74.781,12.548z"></path></g><polygon points="76.938,8.436 74.404,8.436 73.86,5.903 77.482,5.903 "></polygon><path d="M80.025,26.842l-3.73-3.482c0.006-0.03,0.01-0.062,0.01-0.094c0-0.181-0.076-0.343-0.197-0.458l2.338-9.009  c0.043-0.164-0.056-0.332-0.221-0.375c-0.164-0.043-0.331,0.057-0.374,0.221l-2.338,9.01c-0.144,0.037-0.267,0.122-0.352,0.238  l-8.71-3.539c-0.077-0.031-0.168,0.006-0.199,0.085c-0.032,0.079,0.006,0.168,0.084,0.2l8.711,3.539  c-0.005,0.029-0.01,0.058-0.01,0.088c0,0.351,0.284,0.634,0.635,0.634c0.035,0,0.069-0.004,0.104-0.011l3.742,3.496  c0.072,0.066,0.162,0.1,0.254,0.1c0.1,0,0.197-0.039,0.271-0.117C80.183,27.217,80.174,26.982,80.025,26.842z"></path><polygon points="67.375,10.858 66.125,11.609 65.106,10.522 66.892,9.449 "></polygon><polygon points="83.863,10.858 85.112,11.609 86.131,10.522 84.346,9.449 "></polygon><path d="M66.2,41.061c-0.867-1.727-2.97-2.425-4.699-1.557l-10.63,5.339l-7.348-10.024v-1.093c4.158-1.449,7.146-5.394,7.146-10.045  c0-5.879-4.767-10.646-10.646-10.646s-10.646,4.767-10.646,10.646c0,4.651,2.988,8.596,7.146,10.045v0.538l-20.28,15.949  c-1.52,1.194-1.783,3.396-0.587,4.915c0.69,0.878,1.717,1.336,2.753,1.336c0.757,0,1.52-0.244,2.161-0.749L36.523,43.17v15.373  L11.897,83.858c-1.348,1.386-1.317,3.602,0.068,4.949c0.68,0.662,1.561,0.991,2.44,0.991c0.912,0,1.823-0.354,2.509-1.06  L40.48,64.514l14.671,10.007l-6.922,14.976c-0.811,1.755-0.046,3.835,1.708,4.646c0.476,0.22,0.975,0.324,1.467,0.324  c1.322,0,2.588-0.753,3.179-2.032l8.166-17.666c0.009-0.019,0.012-0.038,0.02-0.057c0.055-0.124,0.092-0.252,0.131-0.379  c0.03-0.096,0.067-0.19,0.088-0.287c0.026-0.118,0.034-0.236,0.048-0.354c0.012-0.109,0.031-0.218,0.033-0.327  s-0.013-0.217-0.021-0.326c-0.009-0.115-0.012-0.23-0.031-0.344c-0.02-0.109-0.055-0.215-0.084-0.322  c-0.03-0.107-0.054-0.217-0.094-0.32c-0.041-0.108-0.099-0.21-0.15-0.313c-0.048-0.097-0.091-0.196-0.148-0.288  c-0.059-0.095-0.132-0.181-0.2-0.27c-0.071-0.093-0.137-0.188-0.217-0.273c-0.071-0.075-0.155-0.141-0.234-0.211  c-0.096-0.085-0.188-0.172-0.294-0.247c-0.018-0.013-0.031-0.028-0.049-0.041L43.523,58.115V46.659l3.452,4.709  c0.012,0.016,0.027,0.026,0.039,0.042c0.152,0.201,0.322,0.383,0.509,0.543c0.016,0.014,0.03,0.029,0.046,0.043  c0.188,0.155,0.392,0.283,0.605,0.395c0.042,0.022,0.083,0.045,0.125,0.064c0.211,0.101,0.43,0.18,0.657,0.235  c0.039,0.01,0.078,0.017,0.117,0.024c0.239,0.051,0.481,0.085,0.727,0.085c0.008,0,0.017-0.003,0.025-0.003  c0.226-0.002,0.451-0.032,0.675-0.078c0.062-0.013,0.121-0.027,0.182-0.043c0.226-0.059,0.448-0.134,0.662-0.24  c0.008-0.004,0.017-0.005,0.024-0.009l13.274-6.667C66.37,44.892,67.067,42.789,66.2,41.061z"></path></svg>