<svg xmlns="http://www.w3.org/2000/svg" xmlns:xlink="http://www.w3.org/1999/xlink" version="1.1" x="0px" y="0px" viewBox="0 0 100 100" enable-background="new 0 0 100 100" xml:space="preserve"><g><path d="M56.809,28.396c5.314,0,9.66-4.343,9.66-9.661c0-5.392-4.346-9.735-9.66-9.735c-3.896,0-7.339,2.321-8.837,5.691   c-0.599,1.198-0.898,2.621-0.898,4.044c0,1.422,0.299,2.77,0.898,4.043C49.468,26.074,52.912,28.396,56.809,28.396z M68.439,66.736   c1.287-3.342,2.108-6.596,3.401-10.108c-4.418,0-6.973-0.146-11.329-0.03c-3.445,0-4.902,1.977-6.025,4.373   c-2.17,5.69-4.343,11.456-6.516,17.147c-1.085,2.968-2.278,5.981-3.371,8.952h11.947c2.397-7.021,4.763-13.555,7.562-20.334H68.439   z M94.893,53.172c-0.311-0.77-0.664-1.52-1.037-2.26c-0.223-0.444-1.34-1.927-1.254-2.373c0.9-4.643,1.93-9.307,2.828-13.95   c0.756-3.659-0.803-5.954-2.973-6.853c-2.846-1.198-4.572-1.886-7.342-3.084c-1.199-0.524-2.398-1.049-3.67-1.572   c-3.67-1.798-6.143-2.282-9.812,0.224c-6.891,4.343-14.584,9.294-21.474,13.713c0.9-2.396,2.298-5.325,3.199-7.723   c-1.873-0.672-3.517-1.421-5.389-2.17c-0.299-0.15-0.599-0.225-0.898-0.375l-0.149,0.375c-2.138,4.518-4.911,9.987-6.56,14.479   c-1.092,3.415,2.628,6.088,5.994,4.999c0.075,0,10.525-4.801,14.792-6.673c4.793,5.466,9.511,11.008,14.302,16.475   c-2.396,1.496-2.927,1.912-4.041,5.316c-2.966,8.45-5.931,16.901-8.896,25.352H74.98l7.131-20.083   c0.748,0.075,2.18,0.198,3.004,0.198c2.367,0,4.678,0.065,6.824-1.117C96.557,63.523,96.598,57.445,94.893,53.172z M90.281,54.307   h-7.49l2.324-12.356l0.373-1.871l-0.373-0.524l-5.244-7.49l5.244,1.274l2.77,0.599l-3.508,19.33l5.914,0.008L90.281,54.307z"></path></g></svg>