<svg xmlns="http://www.w3.org/2000/svg" xmlns:xlink="http://www.w3.org/1999/xlink" version="1.2" baseProfile="tiny" x="0px" y="0px" viewBox="0 0 100 100" xml:space="preserve"><path d="M28.75,60.125c-2.229,0-4.042,1.813-4.042,4.042s1.813,4.042,4.042,4.042s4.042-1.813,4.042-4.042  S30.979,60.125,28.75,60.125z M28.75,67.208c-1.677,0-3.042-1.365-3.042-3.042s1.364-3.042,3.042-3.042s3.042,1.364,3.042,3.042  S30.427,67.208,28.75,67.208z"></path><path d="M28.75,31.792c-4.34,0-7.583,4.004-7.583,7.583c0,11.783,6.963,17.837,7.26,18.089c0.093,0.08,0.208,0.119,0.324,0.119  s0.23-0.04,0.324-0.119c0.296-0.252,7.26-6.307,7.26-18.089C36.333,35.795,33.09,31.792,28.75,31.792z M28.75,56.397  c-1.367-1.351-6.583-7.153-6.583-17.022c0-3.044,2.876-6.583,6.583-6.583s6.583,3.539,6.583,6.583  C35.333,49.244,30.117,55.047,28.75,56.397z"></path><path d="M57.437,64.52l1.85-1.85c1.125,0.561,2.526,0.387,3.463-0.55c0.756-0.757,2.077-0.757,2.834,0  c1.171,1.172,3.078,1.171,4.249,0c0.781-0.781,2.054-0.781,2.835,0c1.171,1.171,3.078,1.172,4.249,0  c0.757-0.757,2.078-0.757,2.834,0c0.586,0.586,1.355,0.878,2.125,0.878c0.461,0,0.917-0.118,1.338-0.328l1.85,1.85l0.707-0.707  l-8.811-8.811c0.763-0.718,2.048-0.708,2.792,0.035c0.586,0.586,1.355,0.878,2.125,0.878s1.539-0.292,2.125-0.878l-0.707-0.707  c-0.757,0.757-2.078,0.757-2.835,0c-1.121-1.121-3.064-1.131-4.206-0.035L71.957,50l1.497-1.497c1.125,0.561,2.526,0.387,3.462-0.55  c0.757-0.757,2.078-0.756,2.834,0c0.586,0.586,1.355,0.878,2.125,0.878s1.539-0.292,2.125-0.878l-0.707-0.707  c-0.757,0.757-2.078,0.757-2.835,0c-1.134-1.134-3.113-1.135-4.249,0c-0.517,0.518-1.296,0.672-1.98,0.482l6.308-6.308  c0.421,0.21,0.877,0.328,1.338,0.328c0.77,0,1.539-0.292,2.125-0.878l-0.707-0.707c-0.517,0.517-1.296,0.672-1.981,0.482  l4.458-4.458l-0.707-0.707l-4.648,4.648c-1.14-1.095-3.083-1.087-4.206,0.035c-0.757,0.757-2.078,0.756-2.834,0  c-1.172-1.172-3.077-1.172-4.249,0c-0.756,0.756-2.077,0.757-2.834,0c-1.122-1.122-3.065-1.13-4.206-0.035l-4.648-4.648  l-0.707,0.707l4.458,4.458c-0.684,0.19-1.463,0.035-1.981-0.482L58.5,40.87c0.937,0.937,2.338,1.112,3.463,0.55l6.308,6.308  c-0.684,0.19-1.463,0.036-1.98-0.482c-1.135-1.135-3.114-1.134-4.249,0c-0.757,0.757-2.078,0.757-2.835,0L58.5,47.953  c1.172,1.172,3.077,1.172,4.249,0c0.756-0.756,2.077-0.757,2.834,0c0.937,0.937,2.338,1.112,3.463,0.55L70.543,50l-4.295,4.295  c-1.141-1.096-3.084-1.086-4.206,0.035c-0.757,0.757-2.078,0.757-2.835,0L58.5,55.037c1.172,1.172,3.077,1.172,4.249,0  c0.743-0.743,2.028-0.753,2.792-0.035l-8.811,8.811L57.437,64.52z M62.792,40.835c0.762-0.718,2.047-0.709,2.792,0.035  c1.171,1.172,3.078,1.171,4.249,0c0.781-0.781,2.054-0.781,2.835,0c1.171,1.171,3.078,1.172,4.249,0  c0.744-0.744,2.029-0.752,2.792-0.035l-6.376,6.376c-1.161-1.119-3.002-1.119-4.164,0L62.792,40.835z M69.875,47.918  c0.771-0.729,1.979-0.729,2.75,0l-1.375,1.375L69.875,47.918z M71.25,50.707l4.105,4.105c-0.684,0.19-1.463,0.035-1.98-0.482  c-1.172-1.172-3.077-1.172-4.249,0c-0.517,0.517-1.296,0.672-1.98,0.482L71.25,50.707z M66.37,55.587  c1.125,0.562,2.527,0.386,3.462-0.55c0.781-0.781,2.054-0.781,2.835,0c0.936,0.937,2.338,1.112,3.463,0.55l6.308,6.308  c-0.684,0.19-1.463,0.035-1.981-0.482c-1.134-1.134-3.113-1.135-4.249,0c-0.757,0.757-2.078,0.757-2.834,0  c-1.172-1.172-3.077-1.172-4.249,0c-0.756,0.757-2.077,0.757-2.834,0c-1.135-1.135-3.114-1.134-4.249,0  c-0.517,0.517-1.296,0.672-1.981,0.482L66.37,55.587z"></path><path d="M50,27.722c-0.868-1.898-2.78-3.222-5-3.222H7v51h38c2.481,0,4.5,2.019,4.5,4.5h1c0-2.481,2.019-4.5,4.5-4.5h38v-51H55  C52.78,24.5,50.868,25.824,50,27.722z M49.5,76.841C48.504,75.426,46.858,74.5,45,74.5H8v-49h37c2.481,0,4.5,2.019,4.5,4.5V76.841z   M92,74.5H55c-1.858,0-3.504,0.926-4.5,2.341V30c0-2.481,2.019-4.5,4.5-4.5h37V74.5z"></path></svg>