<svg xmlns="http://www.w3.org/2000/svg" xmlns:xlink="http://www.w3.org/1999/xlink" version="1.1" x="0px" y="0px" viewBox="0 0 100 100" enable-background="new 0 0 100 100" xml:space="preserve"><g><path d="M19.152,61.221c1.824,0.432,3.64,0.5,5.496,0.523c2.293,0.033,4.641-0.004,6.912-0.504   c2.013-0.443,3.969-1.256,5.709-2.468c1.844-1.284,3.451-3.02,4.472-4.876c0.86-1.572,1.3-3.232,1.792-5.156   c0.584-2.268,1.236-4.904,0.492-6.584c-0.4-0.9-1.209-1.528-2.184-1.98c-1.988-0.916-4.681-1.124-7.201-1.3   c-4.123-0.292-7.771-0.508-11.488-0.444c-2.303,0.044-4.635,0.192-7.203,0.852c-1.7,0.44-3.5,1.1-4.552,2.288   c-1.004,1.132-1.328,2.74-1.472,4.296c-0.248,2.688,0.032,5.22,0.88,7.68c0.644,1.863,1.612,3.684,3.064,5.023   C15.316,59.908,17.236,60.765,19.152,61.221z M89.192,53.549c0.852-2.46,1.132-4.992,0.88-7.68   c-0.144-1.556-0.464-3.164-1.468-4.296c-1.057-1.188-2.856-1.848-4.557-2.288c-2.564-0.66-4.9-0.808-7.203-0.852   c-3.717-0.064-7.365,0.152-11.488,0.444c-2.516,0.176-5.213,0.384-7.196,1.3c-0.979,0.452-1.788,1.08-2.188,1.98   c-0.744,1.68-0.088,4.316,0.492,6.584c0.492,1.924,0.932,3.583,1.793,5.156c1.02,1.856,2.627,3.592,4.471,4.876   c1.744,1.212,3.697,2.024,5.709,2.468c2.271,0.5,4.623,0.537,6.912,0.504c1.855-0.023,3.672-0.092,5.496-0.523   c1.916-0.456,3.84-1.313,5.283-2.648C87.58,57.232,88.548,55.412,89.192,53.549z M91.304,48.965   c-0.252,2.488-0.748,4.588-1.724,6.62c-1.024,2.14-2.58,4.2-4.567,5.432c-2.513,1.552-5.709,1.792-8.736,1.929   c-3.301,0.151-6.4,0.188-9.528-0.789c-2.769-0.863-5.56-2.516-7.571-4.644c-2.064-2.181-3.309-4.856-3.945-7.976   c-0.387-1.904-0.547-3.968-1.823-5.108c-0.853-0.76-2.192-1.112-3.408-1.144c-1.22,0.032-2.56,0.384-3.407,1.144   c-1.277,1.14-1.441,3.204-1.828,5.108c-0.637,3.12-1.881,5.795-3.945,7.976c-2.012,2.128-4.803,3.78-7.571,4.644   c-3.128,0.977-6.224,0.94-9.528,0.789c-3.028-0.137-6.224-0.377-8.731-1.929c-1.992-1.231-3.548-3.292-4.572-5.432   c-0.976-2.032-1.468-4.132-1.724-6.62c-0.116-1.132-0.184-2.34-0.688-3.072c-0.292-0.42-0.728-0.684-1.228-0.852   c-0.756-0.256-1.652-0.296-2.528-0.112c0-1.38,0-2.764,0-4.148c0.12-0.004,0.24-0.012,0.36-0.02   c1.568-0.24,3.136-0.528,4.664-0.956c1.676-0.476,3.3-1.12,4.98-1.596c2.344-0.668,4.784-1.008,7.216-1.152   c4.221-0.244,8.412,0.108,12.684,0.296c2.305,0.104,4.629,0.16,6.781,0.868c1.436,0.476,2.795,1.24,4.256,1.656   c1.543,0.44,3.203,0.492,4.812,0.488c1.604,0.004,3.265-0.048,4.808-0.488c1.461-0.416,2.82-1.18,4.256-1.656   c2.152-0.708,4.48-0.764,6.781-0.868c4.275-0.188,8.463-0.54,12.684-0.296c2.432,0.144,4.875,0.484,7.216,1.152   c1.681,0.476,3.304,1.12,4.983,1.596c1.524,0.428,3.092,0.716,4.66,0.956c0.121,0.008,0.24,0.016,0.364,0.02   c0,1.384,0,2.768,0,4.148c-0.876-0.184-1.776-0.144-2.532,0.112c-0.5,0.168-0.936,0.432-1.228,0.852   C91.488,46.625,91.425,47.833,91.304,48.965z"></path></g></svg>