<svg fill="#EC5D57" xmlns="http://www.w3.org/2000/svg" xmlns:xlink="http://www.w3.org/1999/xlink" version="1.1" x="0px" y="0px" viewBox="0 0 100 100" enable-background="new 0 0 100 100" xml:space="preserve"><path d="M75.713,38.66C73.619,26.193,62.763,16.931,50,16.931c-12.764,0-23.62,9.263-25.714,21.729  C15.988,38.77,9.271,45.554,9.271,53.879c0,8.392,6.827,15.219,15.219,15.219h40.575c-0.897,1.832-2.263,4.614-2.693,5.456  c-0.347,0.677-0.538,1.482-0.538,2.268c0,2.855,2.323,5.179,5.179,5.179s5.179-2.323,5.179-5.179c0-0.78-0.181-1.543-0.536-2.266  l-2.691-5.458h6.549c8.392,0,15.218-6.827,15.218-15.219C90.729,45.554,84.012,38.769,75.713,38.66z M74.792,53.396  c-0.118,0.595-0.64,1.006-1.225,1.006c-0.08,0-0.162-0.008-0.245-0.024l-10.275-2.044c-0.677-0.135-1.116-0.792-0.981-1.47  c0.135-0.676,0.781-1.121,1.47-0.982l10.275,2.044C74.487,52.062,74.927,52.719,74.792,53.396z M33.923,58.775  c0.289,0.587,0.435,1.205,0.435,1.838c0,2.313-1.883,4.196-4.196,4.196s-4.196-1.883-4.196-4.196c0-0.639,0.155-1.294,0.438-1.844  c0.392-0.766,1.785-3.609,2.37-4.807l-2.088,0.416c-0.082,0.017-0.165,0.024-0.245,0.024c-0.585,0-1.106-0.411-1.225-1.006  c-0.135-0.677,0.305-1.335,0.981-1.47l10.275-2.045c0.682-0.139,1.336,0.306,1.47,0.982c0.135,0.677-0.305,1.335-0.981,1.47  l-5.658,1.126L33.923,58.775z M42.946,58.236c1.884-1.886,4.391-2.924,7.057-2.924c2.667,0,5.172,1.038,7.056,2.924  c0.488,0.488,0.488,1.28,0,1.768c-0.244,0.244-0.564,0.366-0.884,0.366c-0.32,0-0.64-0.122-0.884-0.366  c-1.412-1.413-3.29-2.191-5.289-2.191c-1.998,0-3.877,0.778-5.289,2.191c-0.487,0.487-1.278,0.489-1.768,0  C42.458,59.517,42.458,58.725,42.946,58.236z M39.055,80.224c0.355,0.723,0.536,1.485,0.536,2.266c0,2.855-2.323,5.179-5.179,5.179  s-5.179-2.323-5.179-5.179c0-0.785,0.191-1.591,0.538-2.268c0.655-1.282,3.488-7.079,3.517-7.138c0.209-0.429,0.644-0.7,1.121-0.701  c0,0,0.001,0,0.002,0c0.476,0,0.91,0.271,1.121,0.697L39.055,80.224z M58.896,85.892c0.355,0.723,0.536,1.485,0.536,2.266  c0,2.855-2.323,5.179-5.179,5.179s-5.179-2.323-5.179-5.179c0-0.785,0.191-1.591,0.538-2.268c0.655-1.282,3.489-7.079,3.517-7.138  c0.209-0.429,0.644-0.7,1.121-0.701c0,0,0.001,0,0.002,0c0.476,0,0.91,0.271,1.121,0.697L58.896,85.892z"></path></svg>